<svg width="25" height="24" viewBox="0 0 25 24" fill="none" xmlns="http://www.w3.org/2000/svg">
<path fill-rule="evenodd" clip-rule="evenodd" d="M23.21 18H15.29C14.9 17.12 14.03 16.5 13 16.5C11.97 16.5 11.1 17.12 10.71 18H2.79004V20C2.79004 20 6.38854 20 8.18778 20C9.02854 20 10.71 20 10.71 20C11.1 20.88 11.97 21.5 13 21.5C14.03 21.5 14.9 20.88 15.29 20H23.21V18Z" fill="white"/>
<path fill-rule="evenodd" clip-rule="evenodd" d="M9.00016 12.6667C9.00016 13.4 9.60016 14 10.3335 14H15.6668C16.4002 14 17.0002 13.4 17.0002 12.6667V6C17.0002 5.26667 16.4002 4.66667 15.6668 4.66667H10.3335C9.60016 4.66667 9.00016 5.26667 9.00016 6V12.6667ZM17.0002 2.66667H15.3335L14.8602 2.19333C14.7402 2.07333 14.5668 2 14.3935 2H11.6068C11.4335 2 11.2602 2.07333 11.1402 2.19333L10.6668 2.66667H9.00016C8.6335 2.66667 8.3335 2.96667 8.3335 3.33333C8.3335 3.7 8.6335 4 9.00016 4H17.0002C17.3668 4 17.6668 3.7 17.6668 3.33333C17.6668 2.96667 17.3668 2.66667 17.0002 2.66667Z" fill="white"/>
</svg>
