<?xml version="1.0" encoding="UTF-8"?>
<svg width="178px" height="60px" viewBox="0 0 178 60" version="1.1" xmlns="http://www.w3.org/2000/svg" xmlns:xlink="http://www.w3.org/1999/xlink">
    <!-- Generator: Sketch 64 (93537) - https://sketch.com -->
    <title>Logo/Kartverket_liggende_web</title>
    <desc>Created with Sketch.</desc>
    <g id="Logo/Kartverket_liggende_web" stroke="none" stroke-width="1" fill="none" fill-rule="evenodd">
        <g id="kartverket_liggende_web" fill-rule="nonzero">
            <path d="M38.2,0.1 L3.6,0.1 C1.9,0.1 0.5,1.5 0.5,3.2 L0.5,24.4 C3.2,22.3 6.6,19.5 12.7,21 C18,22.3 19.1,26.4 27.5,31 C32.6,33.8 37.4,31.6 41.3,29.4 L41.3,3.2 C41.3,1.5 39.9,0.1 38.2,0.1" id="Path" fill="#249446"></path>
            <path d="M30.2,40.4 C28.5,40.2 27.1,39.6 25.8,38.7 C22.9,36.9 20.1,34 14.1,30.9 C9.4,28.6 4.7,30.4 0.5,32.8 C0.5,32.8 0.5,32.8 0.5,32.8 L0.5,56.5 C0.5,58.2 1.9,59.6 3.6,59.6 L38.1,59.6 C39.8,59.6 41.2,58.2 41.2,56.5 L41.2,37.1 C37.6,39.2 34.1,41 30.2,40.4" id="Path" fill="#1A589F"></path>
            <path d="M27.5,30.9 C19.2,26.3 18,22.2 12.7,20.9 C6.6,19.4 3.2,22.3 0.5,24.3 L0.5,28.6 L0.5,32.7 C4.7,30.3 9.4,28.4 14.1,30.8 C20.1,33.9 22.9,36.8 25.8,38.6 C27.1,39.4 28.5,40 30.2,40.3 C34.1,40.9 37.6,39.2 41.3,37.1 L41.3,33.3 L41.3,29.2 C37.4,31.6 32.6,33.8 27.5,30.9" id="Path" fill="#FFFFFF"></path>
            <g id="Group" transform="translate(52.000000, 28.000000)" fill="#000000">
                <path d="M0.3,20.9 L0.3,1.3 L2.7,1.3 L2.7,20.9 L0.3,20.9 L0.3,20.9 Z M5.4,10.5 L13.2,20.9 L10.2,20.9 L2.7,10.5 L10.2,1.3 L13.2,1.3 L5.4,10.5 Z" id="Shape"></path>
                <path d="M26.1,21.4 C25.1,21.1 24.4,20.3 24.2,19.3 C22.8,20.7 21.7,21.2 20.1,21.2 C16.6,21.2 15.5,19.1 15.5,17.1 C15.5,13.9 18.3,12 23,12 C23.3,12 23.5,12 24,12 L24,11 C24,9.7 23.9,9.2 23.5,8.8 C23,8.3 22.5,8 21.6,8 C20,8 18,8.9 17.1,9.7 L16,8.2 C17.9,6.9 19.9,6.3 22,6.3 C24,6.3 25.3,7.1 25.9,8.5 C26.2,9.3 26.2,10.4 26.2,11.6 L26.1,16.3 C26,18.6 26.2,19.2 27.2,19.8 L26.1,21.4 Z M22.9,13.6 C19.3,13.6 18,14.8 18,17 C18,18.7 18.8,19.6 20.5,19.6 C22,19.6 23.3,18.7 24,17.4 L24.1,13.7 C23.7,13.6 23.2,13.6 22.9,13.6 Z" id="Shape"></path>
                <path d="M37.4,8.8 C37.3,8.7 37,8.7 36.8,8.7 C35.9,8.7 35.1,9.1 34.4,9.7 C33.7,10.4 33.6,10.8 33.6,12 L33.6,20.9 L31.4,20.9 L31.4,9.9 C31.4,8 31,7.1 30.9,6.9 L33.1,6.3 C33.2,6.5 33.6,7.6 33.6,8.6 C34.6,7.1 36.1,6.2 37.6,6.2 C37.9,6.2 38.3,6.3 38.4,6.3 L37.4,8.8 Z" id="Path"></path>
                <path d="M47.5,8.3 L44.5,8.3 L44.5,17.5 C44.5,19.1 44.9,19.6 46.3,19.6 C46.9,19.6 47.3,19.5 47.7,19.3 L48,20.7 C47.3,21.1 46.5,21.3 45.5,21.3 C44.8,21.3 44.2,21.2 43.6,20.9 C42.6,20.4 42.2,19.5 42.2,18.1 L42.2,8.3 L40.3,8.3 L40.3,6.6 L42.2,6.6 C42.2,5.4 42.4,3.5 42.4,3 L44.7,2.5 C44.6,3 44.4,4.9 44.4,6.6 L48,6.6 L47.5,8.3 Z" id="Path"></path>
                <path d="M57.9,21 L55.7,21 L50.6,6.8 L52.9,6.3 L56.2,16.1 C56.5,17.1 56.8,18.3 56.9,18.5 L57,18.5 C57.1,18.3 57.3,17.2 57.7,16.1 L61,6.7 L63.4,6.7 L57.9,21 Z" id="Path"></path>
                <path d="M67.9,14.1 L67.9,14.4 C67.9,15.7 68.1,16.8 68.6,17.5 C69.4,18.7 70.7,19.2 72.1,19.2 C73.5,19.2 74.6,18.8 75.6,17.9 L76.5,19.3 C75.2,20.4 73.5,21.1 71.7,21.1 C67.8,21.1 65.4,18.2 65.4,13.5 C65.4,11.1 65.9,9.6 67.1,8.1 C68.2,6.8 69.6,6.1 71.4,6.1 C72.9,6.1 74.3,6.6 75.3,7.6 C76.5,8.9 76.9,10.2 76.9,13.6 L76.9,13.9 L67.9,13.9 L67.9,14.1 Z M73.7,9.3 C73.2,8.5 72.2,8 71.1,8 C69.1,8 67.9,9.5 67.8,12.4 L74.3,12.4 C74.4,10.9 74.2,10 73.7,9.3 Z" id="Shape"></path>
                <path d="M87,8.8 C86.9,8.7 86.6,8.7 86.4,8.7 C85.5,8.7 84.7,9.1 84,9.7 C83.3,10.4 83.2,10.8 83.2,12 L83.2,20.9 L81,20.9 L81,9.9 C81,8 80.6,7.1 80.5,6.9 L82.7,6.3 C82.8,6.5 83.2,7.6 83.2,8.6 C84.2,7.1 85.7,6.2 87.2,6.2 C87.5,6.2 87.9,6.3 88,6.3 L87,8.8 Z" id="Path"></path>
                <path d="M90.9,20.9 L90.9,3.4 C90.9,1.7 90.6,0.7 90.5,0.5 L92.7,0.1 C92.8,0.3 93.1,1.5 93.1,3.5 L93.1,21 L90.9,21 L90.9,20.9 Z M99.8,20.9 L93.3,12.9 L98.7,6.7 L101.5,6.7 L95.9,12.9 L102.8,20.9 L99.8,20.9 Z" id="Shape"></path>
                <path d="M106.7,14.1 L106.7,14.4 C106.7,15.7 106.9,16.8 107.4,17.5 C108.2,18.7 109.5,19.2 110.9,19.2 C112.3,19.2 113.4,18.8 114.4,17.9 L115.3,19.3 C114,20.4 112.3,21.1 110.5,21.1 C106.6,21.1 104.2,18.2 104.2,13.5 C104.2,11.1 104.7,9.6 105.9,8.1 C107,6.8 108.4,6.1 110.2,6.1 C111.7,6.1 113.1,6.6 114.1,7.6 C115.3,8.9 115.7,10.2 115.7,13.6 L115.7,13.9 L106.7,13.9 L106.7,14.1 Z M112.6,9.3 C112.1,8.5 111.1,8 110,8 C108,8 106.8,9.5 106.7,12.4 L113.2,12.4 C113.2,10.9 113,10 112.6,9.3 Z" id="Shape"></path>
                <path d="M125.2,8.3 L122.2,8.3 L122.2,17.5 C122.2,19.1 122.6,19.6 124,19.6 C124.6,19.6 125,19.5 125.4,19.3 L125.7,20.7 C125,21.1 124.2,21.3 123.2,21.3 C122.5,21.3 121.9,21.2 121.3,20.9 C120.3,20.4 119.9,19.5 119.9,18.1 L119.9,8.3 L118,8.3 L118,6.6 L119.9,6.6 C119.9,5.4 120.1,3.5 120.1,3 L122.4,2.5 C122.3,3 122.1,4.9 122.1,6.6 L125.7,6.6 L125.2,8.3 Z" id="Path"></path>
            </g>
        </g>
    </g>
</svg>